<?xml version="1.0" standalone="no"?>
<!DOCTYPE svg PUBLIC "-//W3C//DTD SVG 20010904//EN"
 "http://www.w3.org/TR/2001/REC-SVG-20010904/DTD/svg10.dtd">
<svg version="1.0" xmlns="http://www.w3.org/2000/svg"
  <!-- Градиент -->
  <linearGradient id="linear-gradient">
    <stop offset="0%" stop-color="gold"/>
    <stop offset="100%" stop-color="teal"/>
  </linearGradient>
<path d="M4940 6804 c-213 -21 -405 -46 -410 -55 -3 -4 -38 -11 -78 -14 -40
-4 -75 -11 -77 -16 -3 -4 -46 -13 -95 -20 -50 -7 -90 -16 -90 -20 0 -4 -22
-10 -50 -14 -27 -4 -52 -11 -55 -15 -3 -5 -37 -14 -75 -21 -39 -7 -70 -16 -70
-20 0 -4 -18 -10 -41 -14 -22 -4 -53 -13 -67 -21 -15 -7 -46 -16 -69 -20 -24
-3 -43 -10 -43 -14 0 -5 -18 -11 -40 -15 -22 -4 -40 -10 -40 -14 0 -4 -25 -14
-55 -21 -30 -7 -55 -17 -55 -21 0 -4 -15 -11 -32 -15 -18 -3 -42 -12 -53 -19
-11 -7 -35 -16 -52 -20 -18 -4 -33 -11 -33 -16 0 -5 -6 -9 -12 -9 -7 0 -35
-12 -63 -25 -27 -14 -58 -25 -67 -25 -10 0 -18 -4 -18 -8 0 -9 -111 -62 -129
-62 -6 0 -11 -4 -11 -8 0 -4 -26 -20 -57 -35 -32 -15 -85 -43 -118 -63 -33
-19 -76 -42 -95 -52 -19 -9 -37 -20 -40 -23 -3 -3 -27 -19 -55 -34 -27 -16
-52 -32 -55 -35 -3 -4 -27 -20 -55 -35 -27 -16 -52 -32 -55 -35 -3 -3 -25 -19
-50 -35 -25 -16 -47 -32 -50 -35 -3 -3 -25 -19 -50 -35 -49 -33 -54 -36 -89
-65 -13 -11 -27 -20 -31 -20 -4 0 -23 -15 -43 -32 -20 -18 -48 -42 -62 -53
-15 -11 -43 -35 -63 -52 -20 -18 -40 -33 -43 -33 -4 0 -24 -17 -46 -37 -22
-21 -75 -69 -118 -108 -145 -131 -334 -325 -460 -474 -11 -14 -27 -32 -35 -41
-9 -8 -29 -34 -45 -55 -17 -22 -36 -44 -42 -48 -7 -4 -13 -13 -13 -20 0 -7
-11 -23 -25 -35 -14 -13 -39 -46 -57 -73 -17 -27 -35 -49 -40 -49 -4 0 -8 -7
-8 -15 0 -9 -7 -18 -15 -21 -8 -4 -15 -12 -15 -18 0 -7 -9 -22 -20 -34 -11
-12 -20 -26 -20 -32 0 -6 -7 -13 -15 -16 -8 -4 -15 -10 -15 -15 0 -8 -36 -66
-65 -104 -8 -10 -15 -25 -15 -32 0 -7 -3 -13 -7 -13 -5 0 -21 -25 -38 -55 -16
-30 -32 -55 -35 -55 -3 0 -12 -16 -19 -35 -7 -19 -17 -35 -22 -35 -5 0 -9 -6
-9 -14 0 -8 -6 -21 -12 -28 -7 -8 -26 -41 -43 -73 -16 -33 -33 -62 -36 -65 -3
-3 -12 -22 -18 -42 -7 -21 -16 -38 -21 -38 -5 0 -11 -13 -15 -30 -4 -16 -11
-30 -16 -30 -5 0 -9 -5 -9 -12 0 -12 -19 -56 -76 -173 -19 -39 -34 -75 -34
-80 -1 -6 -9 -28 -20 -50 -11 -22 -19 -46 -20 -52 0 -7 -4 -13 -9 -13 -5 0
-12 -17 -16 -37 -4 -21 -15 -57 -26 -80 -10 -23 -19 -51 -19 -62 0 -12 -4 -21
-9 -21 -4 0 -14 -27 -21 -60 -7 -33 -16 -60 -20 -60 -4 0 -11 -20 -14 -45 -4
-25 -11 -45 -15 -45 -5 0 -14 -34 -21 -75 -7 -41 -16 -75 -20 -75 -4 0 -11
-24 -14 -52 -4 -29 -11 -57 -16 -63 -4 -5 -13 -43 -19 -84 -6 -40 -15 -81 -20
-90 -5 -9 -12 -45 -16 -81 -4 -36 -11 -67 -14 -70 -8 -6 -37 -225 -56 -430
-18 -195 -18 -835 0 -1030 19 -205 48 -424 56 -430 3 -3 10 -34 14 -70 4 -36
11 -72 16 -81 5 -9 14 -50 20 -90 6 -41 15 -79 19 -84 5 -6 12 -34 16 -63 3
-28 10 -52 14 -52 4 0 12 -32 19 -70 l13 -70 3314 0 3314 0 0 3298 c0 1813 -4
3302 -8 3308 -4 6 -37 17 -75 24 -37 7 -69 16 -72 20 -3 5 -28 11 -55 15 -28
4 -50 10 -50 14 0 4 -40 13 -90 20 -49 7 -92 16 -95 20 -2 5 -37 12 -77 16
-40 3 -75 10 -78 14 -6 9 -202 35 -425 56 -193 18 -844 18 -1035 -1z"/>
</g>
</svg>
