<?xml version="1.0" standalone="no"?>
<!DOCTYPE svg PUBLIC "-//W3C//DTD SVG 20010904//EN"
 "http://www.w3.org/TR/2001/REC-SVG-20010904/DTD/svg10.dtd">
<svg version="1.0" xmlns="http://www.w3.org/2000/svg"
 width="400.000000pt" height="400.000000pt" viewBox="0 0 400.000000 400.000000"
 preserveAspectRatio="xMidYMid meet">
<metadata>
Created by potrace 1.11, written by Peter Selinger 2001-2013
</metadata>
<g transform="translate(0.000000,400.000000) scale(0.100000,-0.100000)"
fill="#000000" stroke="none">
<path d="M347 3262 c-3 -4 -58 -196 -122 -427 -64 -231 -141 -508 -171 -616
l-54 -196 1 -529 0 -529 20 65 c40 129 179 603 240 820 17 58 44 149 60 204
17 54 32 106 34 115 2 9 34 117 71 241 36 124 71 244 77 268 10 40 23 56 24
30 0 -7 30 -112 66 -233 36 -121 134 -454 217 -740 84 -286 184 -630 223 -765
l72 -245 176 -3 176 -2 31 107 c17 60 56 196 86 303 65 231 153 543 281 995
132 468 152 544 160 598 14 104 24 126 26 56 2 -75 1 -71 88 -394 5 -16 45
-160 90 -320 45 -159 111 -393 147 -520 35 -126 69 -246 74 -265 6 -19 43
-152 83 -295 l73 -260 179 0 179 0 42 150 c43 154 101 359 248 880 47 165 125
441 173 613 l88 312 21 -72 c12 -40 67 -235 123 -433 56 -198 108 -382 116
-410 8 -27 60 -212 115 -410 56 -198 105 -371 110 -385 5 -14 9 204 9 510 l1
535 -35 130 c-60 225 -135 506 -165 620 -15 61 -40 155 -55 210 -15 55 -28
105 -29 110 -1 6 -13 49 -26 98 l-25 87 -162 0 -162 0 -10 -37 c-5 -21 -83
-312 -171 -648 -392 -1479 -377 -1419 -380 -1485 l-2 -35 -8 35 c-5 19 -11 53
-14 75 -8 49 -34 152 -81 320 -20 72 -43 155 -51 185 -8 30 -42 154 -75 275
-34 121 -62 225 -63 230 -5 21 -28 104 -62 225 -20 69 -38 133 -40 143 -2 10
-6 27 -9 37 -3 10 -8 27 -10 37 -2 10 -38 140 -79 288 -40 149 -79 289 -85
312 l-11 41 -145 1 c-80 0 -145 -1 -145 -3 0 -2 -20 -73 -44 -157 -129 -448
-300 -1043 -341 -1184 -47 -161 -58 -197 -74 -257 -5 -18 -34 -123 -66 -232
-32 -110 -65 -238 -75 -285 -10 -47 -19 -81 -20 -76 -1 6 -3 28 -5 51 -9 82
-36 185 -305 1157 l-273 987 -173 0 c-95 0 -175 -3 -177 -8z"/>
</g>
</svg>
